PathFileType	4	(X/Y/Z)	C:\Users\86182\Documents\cortex\Trimmed_M1_H10.trc
DataRate	CameraRate	NumFrames	NumMarkers	Units	OrigDataRate	OrigDataStartFrame	OrigNumFrames
100.00	100.00	       140	2	mm	100.00	571	       951
Frame#	Time	gripper			box			
		X1	Y1	Z1	X2	Y2	Z2	

571	5.700	222.26929	204.56326	286.41095	228.99707	203.32498	139.87003	
572	5.710	222.27611	204.56236	286.41199	228.99734	203.32510	139.86996	
573	5.720	222.28363	204.56064	286.41336	228.99733	203.32509	139.86996	
574	5.730	222.29160	204.55833	286.41461	228.99689	203.32491	139.87006	
575	5.740	222.29938	204.55568	286.41544	228.99590	203.32446	139.87024	
576	5.750	222.30557	204.55298	286.41568	228.99419	203.32370	139.87054	
577	5.760	222.30887	204.55057	286.41556	228.99165	203.32259	139.87103	
578	5.770	222.30887	204.54880	286.41528	228.98834	203.32112	139.87164	
579	5.780	222.30533	204.54781	286.41522	228.98450	203.31943	139.87236	
580	5.790	222.29765	204.54778	286.41565	228.98056	203.31767	139.87311	
581	5.800	222.28590	204.54877	286.41663	228.97717	203.31618	139.87373	
582	5.810	222.27190	204.55077	286.41772	228.97525	203.31532	139.87408	
583	5.820	222.25864	204.55344	286.41840	228.97523	203.31532	139.87408	
584	5.830	222.24870	204.55637	286.41830	228.97670	203.31598	139.87381	
585	5.840	222.24329	204.55905	286.41745	228.97881	203.31691	139.87343	
586	5.850	222.24231	204.56107	286.41602	228.98087	203.31783	139.87305	
587	5.860	222.24518	204.56223	286.41428	228.98236	203.31848	139.87277	
588	5.870	222.25116	204.56248	286.41251	228.98305	203.31877	139.87265	
589	5.880	222.25941	204.56197	286.41104	228.98331	203.31889	139.87259	
590	5.890	222.26874	204.56093	286.41010	228.98404	203.31923	139.87245	
591	5.900	222.27731	204.55972	286.40994	228.98582	203.32001	139.87213	
592	5.910	222.28325	204.55858	286.41074	228.98839	203.32115	139.87164	
593	5.920	222.28604	204.55745	286.41241	228.99107	203.32233	139.87115	
594	5.930	222.28683	204.55620	286.41458	228.99336	203.32333	139.87073	
595	5.940	222.28708	204.55493	286.41669	228.99504	203.32408	139.87041	
596	5.950	222.28714	204.55405	286.41818	228.99608	203.32454	139.87021	
597	5.960	222.28635	204.55394	286.41861	228.99655	203.32475	139.87012	
598	5.970	222.28395	204.55482	286.41772	228.99654	203.32474	139.87012	
599	5.980	222.27972	204.55643	286.41580	228.99617	203.32458	139.87018	
600	5.990	222.27417	204.55823	286.41351	228.99556	203.32431	139.87030	
601	6.000	222.26834	204.55962	286.41147	228.99481	203.32397	139.87042	
602	6.010	222.26337	204.56017	286.41013	228.99402	203.32362	139.87057	
603	6.020	222.25983	204.55971	286.40970	228.99319	203.32327	139.87071	
604	6.030	222.25758	204.55838	286.41025	228.99231	203.32288	139.87088	
605	6.040	222.25639	204.55655	286.41174	228.99135	203.32245	139.87106	
606	6.050	222.25616	204.55453	286.41388	228.99031	203.32198	139.87131	
607	6.060	222.25655	204.55260	286.41626	228.98921	203.32149	139.87157	
608	6.070	222.25690	204.55099	286.41858	228.98814	203.32100	139.87186	
609	6.080	222.25725	204.54990	286.42029	228.98729	203.32062	139.87213	
610	6.090	222.25827	204.54945	286.42093	228.98692	203.32043	139.87231	
611	6.100	222.26001	204.54970	286.42035	228.98727	203.32059	139.87236	
612	6.110	222.26154	204.55058	286.41891	228.98836	203.32106	139.87221	
613	6.120	222.26212	204.55196	286.41711	228.98987	203.32173	139.87189	
614	6.130	222.26155	204.55362	286.41534	228.99136	203.32240	139.87149	
615	6.140	222.25984	204.55536	286.41406	228.99232	203.32285	139.87119	
616	6.150	222.25728	204.55702	286.41333	228.99237	203.32288	139.87106	
617	6.160	222.25487	204.55853	286.41302	228.99127	203.32240	139.87119	
618	6.170	222.25368	204.55972	286.41290	228.98904	203.32143	139.87155	
619	6.180	222.25412	204.56032	286.41290	228.98581	203.31999	139.87216	
620	6.190	222.25594	204.56003	286.41321	228.98183	203.31824	139.87294	
621	6.200	222.25835	204.55885	286.41388	228.97763	203.31636	139.87379	
622	6.210	222.26025	204.55714	286.41504	228.97374	203.31464	139.87463	
623	6.220	222.26054	204.55537	286.41663	228.97060	203.31323	139.87535	
624	6.230	222.25891	204.55399	286.41843	228.96883	203.31244	139.87579	
625	6.240	222.25598	204.55322	286.41989	228.96883	203.31242	139.87585	
626	6.250	222.25308	204.55322	286.42041	228.97034	203.31310	139.87552	
627	6.260	222.25162	204.55386	286.41986	228.97293	203.31425	139.87494	
628	6.270	222.25232	204.55486	286.41837	228.97635	203.31578	139.87418	
629	6.280	222.25507	204.55586	286.41644	228.98026	203.31752	139.87334	
630	6.290	222.25929	204.55661	286.41449	228.98433	203.31934	139.87248	
631	6.300	222.26454	204.55696	286.41263	228.98828	203.32109	139.87169	
632	6.310	222.27061	204.55696	286.41083	228.99162	203.32257	139.87103	
633	6.320	222.27693	204.55679	286.40903	228.99382	203.32355	139.87061	
634	6.330	222.28215	204.55670	286.40747	228.99446	203.32382	139.87048	
635	6.340	222.28506	204.55672	286.40646	228.99326	203.32330	139.87070	
636	6.350	222.28539	204.55667	286.40610	228.99010	203.32190	139.87129	
637	6.360	222.28352	204.55638	286.40631	228.98508	203.31969	139.87222	
638	6.370	222.28004	204.55589	286.40710	228.97867	203.31685	139.87341	
639	6.380	222.27563	204.55537	286.40833	228.97174	203.31378	139.87471	
640	6.390	222.27144	204.55484	286.40985	228.96564	203.31108	139.87585	
641	6.400	222.26855	204.55437	286.41138	228.96158	203.30930	139.87662	
642	6.410	222.26746	204.55405	286.41254	228.96019	203.30867	139.87688	
643	6.420	222.26788	204.55403	286.41312	228.96155	203.30928	139.87662	
644	6.430	222.26933	204.55440	286.41290	228.96550	203.31102	139.87589	
645	6.440	222.27148	204.55501	286.41199	228.97130	203.31358	139.87482	
646	6.450	222.27406	204.55565	286.41058	228.97772	203.31642	139.87363	
647	6.460	222.27702	204.55609	286.40903	228.98369	203.31906	139.87250	
648	6.470	222.28049	204.55618	286.40756	228.98853	203.32120	139.87161	
649	6.480	222.28471	204.55583	286.40637	228.99200	203.32274	139.87096	
650	6.490	222.28992	204.55502	286.40564	228.99429	203.32375	139.87053	
651	6.500	222.29655	204.55386	286.40543	228.99576	203.32440	139.87025	
652	6.510	222.30539	204.55243	286.40558	228.99675	203.32484	139.87007	
653	6.520	222.31660	204.55090	286.40598	228.99741	203.32513	139.86995	
654	6.530	222.32875	204.54968	286.40637	228.99768	203.32526	139.86990	
655	6.540	222.33882	204.54924	286.40668	228.99744	203.32513	139.86995	
656	6.550	222.34334	204.54993	286.40689	228.99649	203.32472	139.87013	
657	6.560	222.34001	204.55194	286.40704	228.99463	203.32390	139.87048	
658	6.570	222.32906	204.55518	286.40717	228.99168	203.32260	139.87103	
659	6.580	222.31306	204.55896	286.40735	228.98758	203.32079	139.87180	
660	6.590	222.29533	204.56221	286.40768	228.98254	203.31856	139.87273	
661	6.600	222.27856	204.56409	286.40833	228.97729	203.31624	139.87369	
662	6.610	222.26485	204.56441	286.40933	228.97311	203.31439	139.87448	
663	6.620	222.25580	204.56337	286.41071	228.97134	203.31361	139.87482	
664	6.630	222.25221	204.56123	286.41245	228.97252	203.31413	139.87460	
665	6.640	222.25386	204.55833	286.41443	228.97598	203.31566	139.87396	
666	6.650	222.25958	204.55504	286.41650	228.98051	203.31766	139.87311	
667	6.660	222.26799	204.55174	286.41843	228.98509	203.31969	139.87225	
668	6.670	222.27779	204.54881	286.41980	228.98915	203.32147	139.87151	
669	6.680	222.28775	204.54654	286.42035	228.99242	203.32292	139.87088	
670	6.690	222.29700	204.54507	286.41974	228.99484	203.32399	139.87044	
671	6.700	222.30531	204.54446	286.41776	228.99643	203.32469	139.87015	
672	6.710	222.31233	204.54456	286.41470	228.99730	203.32509	139.86996	
673	6.720	222.31685	204.54536	286.41119	228.99762	203.32523	139.86992	
674	6.730	222.31760	204.54694	286.40765	228.99750	203.32516	139.86993	
675	6.740	222.31427	204.54930	286.40448	228.99701	203.32495	139.87003	
676	6.750	222.30788	204.55232	286.40179	228.99615	203.32457	139.87019	
677	6.760	222.30005	204.55565	286.39963	228.99495	203.32404	139.87042	
678	6.770	222.29205	204.55873	286.39838	228.99330	203.32330	139.87073	
679	6.780	222.28427	204.56102	286.39850	228.99109	203.32234	139.87112	
680	6.790	222.27637	204.56212	286.40030	228.98828	203.32109	139.87164	
681	6.800	222.26814	204.56187	286.40344	228.98489	203.31960	139.87228	
682	6.810	222.26015	204.56055	286.40707	228.98114	203.31795	139.87297	
683	6.820	222.25365	204.55865	286.41013	228.97754	203.31635	139.87364	
684	6.830	222.25018	204.55687	286.41174	228.97461	203.31505	139.87418	
685	6.840	222.25053	204.55557	286.41174	228.97272	203.31421	139.87454	
686	6.850	222.25412	204.55490	286.41080	228.97212	203.31395	139.87463	
687	6.860	222.25957	204.55482	286.40976	228.97321	203.31444	139.87445	
688	6.870	222.26598	204.55527	286.40915	228.97615	203.31573	139.87390	
689	6.880	222.27319	204.55612	286.40897	228.98051	203.31766	139.87308	
690	6.890	222.28108	204.55736	286.40900	228.98529	203.31978	139.87219	
691	6.900	222.28888	204.55898	286.40906	228.98944	203.32161	139.87143	
692	6.910	222.29478	204.56088	286.40903	228.99237	203.32291	139.87088	
693	6.920	222.29678	204.56284	286.40894	228.99385	203.32355	139.87061	
694	6.930	222.29442	204.56433	286.40894	228.99396	203.32359	139.87059	
695	6.940	222.28925	204.56493	286.40894	228.99289	203.32314	139.87079	
696	6.950	222.28354	204.56436	286.40891	228.99104	203.32231	139.87112	
697	6.960	222.27925	204.56276	286.40881	228.98883	203.32133	139.87155	
698	6.970	222.27783	204.56044	286.40869	228.98657	203.32034	139.87198	
699	6.980	222.27975	204.55788	286.40845	228.98438	203.31937	139.87238	
700	6.990	222.28401	204.55550	286.40820	228.98209	203.31836	139.87280	
701	7.000	222.28844	204.55371	286.40790	228.97926	203.31711	139.87334	
702	7.010	222.29082	204.55292	286.40768	228.97578	203.31557	139.87398	
703	7.020	222.28976	204.55330	286.40750	228.97226	203.31401	139.87463	
704	7.030	222.28557	204.55464	286.40738	228.97008	203.31305	139.87503	
705	7.040	222.28021	204.55647	286.40704	228.97041	203.31320	139.87497	
706	7.050	222.27600	204.55829	286.40631	228.97321	203.31444	139.87445	
707	7.060	222.27432	204.55959	286.40494	228.97752	203.31633	139.87364	
708	7.070	222.27563	204.55994	286.40311	228.98225	203.31844	139.87277	
709	7.080	222.27962	204.55913	286.40128	228.98654	203.32033	139.87198	
710	7.090	222.28511	204.55748	286.40009	228.98979	203.32176	139.87137	
